<svg xmlns="http://www.w3.org/2000/svg" xmlns:xlink="http://www.w3.org/1999/xlink" width="883" height="153" viewBox="308 652 883 153">
<defs>
<g>
<g id="glyph-0-0">
<path d="M 3.296875 0.203125 C 2.835938 0.203125 2.4375 0.03125 2.09375 -0.3125 C 1.757812 -0.664062 1.59375 -1.082031 1.59375 -1.5625 C 1.59375 -2.039062 1.757812 -2.445312 2.09375 -2.78125 C 2.4375 -3.125 2.835938 -3.296875 3.296875 -3.296875 C 3.753906 -3.296875 4.144531 -3.125 4.46875 -2.78125 C 4.800781 -2.445312 4.96875 -2.039062 4.96875 -1.5625 C 4.96875 -1.082031 4.800781 -0.664062 4.46875 -0.3125 C 4.144531 0.03125 3.753906 0.203125 3.296875 0.203125 Z M 3.296875 0.203125 "/>
</g>
<g id="glyph-0-1">
<path d="M 7.75 0.296875 C 6.570312 0.296875 5.457031 0.0234375 4.40625 -0.515625 C 3.351562 -1.054688 2.503906 -1.847656 1.859375 -2.890625 C 1.210938 -3.929688 0.890625 -5.195312 0.890625 -6.6875 C 0.890625 -7.894531 1.101562 -8.988281 1.53125 -9.96875 C 1.957031 -10.957031 2.539062 -11.796875 3.28125 -12.484375 C 4.019531 -13.179688 4.859375 -13.71875 5.796875 -14.09375 C 6.734375 -14.46875 7.703125 -14.65625 8.703125 -14.65625 C 10.242188 -14.65625 11.492188 -14.484375 12.453125 -14.140625 C 13.421875 -13.796875 13.90625 -13.421875 13.90625 -13.015625 C 13.90625 -12.722656 13.800781 -12.429688 13.59375 -12.140625 C 13.382812 -11.859375 13.128906 -11.617188 12.828125 -11.421875 C 12.523438 -11.234375 12.226562 -11.140625 11.9375 -11.140625 C 11.539062 -11.140625 11 -11.378906 10.3125 -11.859375 C 9.625 -12.335938 8.722656 -13.109375 7.609375 -14.171875 C 6.773438 -14.054688 6.046875 -13.722656 5.421875 -13.171875 C 4.796875 -12.617188 4.3125 -11.9375 3.96875 -11.125 C 3.632812 -10.320312 3.46875 -9.457031 3.46875 -8.53125 C 3.46875 -7.28125 3.710938 -6.160156 4.203125 -5.171875 C 4.703125 -4.191406 5.398438 -3.425781 6.296875 -2.875 C 7.191406 -2.320312 8.242188 -2.046875 9.453125 -2.046875 C 10.535156 -2.046875 11.488281 -2.257812 12.3125 -2.6875 C 13.144531 -3.113281 13.859375 -3.664062 14.453125 -4.34375 L 14.71875 -4.046875 C 14.28125 -3.367188 13.734375 -2.695312 13.078125 -2.03125 C 12.421875 -1.375 11.644531 -0.820312 10.75 -0.375 C 9.863281 0.0703125 8.863281 0.296875 7.75 0.296875 Z M 7.75 0.296875 "/>
</g>
<g id="glyph-0-2">
<path d="M 8.625 0.296875 C 7.675781 0.296875 6.742188 0.15625 5.828125 -0.125 C 4.910156 -0.40625 4.082031 -0.835938 3.34375 -1.421875 C 2.601562 -2.015625 2.007812 -2.757812 1.5625 -3.65625 C 1.113281 -4.550781 0.890625 -5.617188 0.890625 -6.859375 C 0.890625 -8.035156 1.101562 -9.097656 1.53125 -10.046875 C 1.957031 -11.003906 2.535156 -11.820312 3.265625 -12.5 C 4.003906 -13.1875 4.832031 -13.71875 5.75 -14.09375 C 6.675781 -14.46875 7.632812 -14.65625 8.625 -14.65625 C 9.53125 -14.65625 10.429688 -14.519531 11.328125 -14.25 C 12.222656 -13.988281 13.050781 -13.5625 13.8125 -12.96875 C 14.570312 -12.382812 15.175781 -11.640625 15.625 -10.734375 C 16.082031 -9.828125 16.3125 -8.738281 16.3125 -7.46875 C 16.3125 -6.226562 16.070312 -5.125 15.59375 -4.15625 C 15.125 -3.195312 14.507812 -2.390625 13.75 -1.734375 C 12.988281 -1.078125 12.15625 -0.570312 11.25 -0.21875 C 10.34375 0.125 9.46875 0.296875 8.625 0.296875 Z M 3.78125 -9.03125 C 3.78125 -8.175781 3.90625 -7.25 4.15625 -6.25 C 4.414062 -5.25 4.789062 -4.296875 5.28125 -3.390625 C 5.769531 -2.492188 6.378906 -1.757812 7.109375 -1.1875 C 7.847656 -0.625 8.6875 -0.34375 9.625 -0.34375 C 10.570312 -0.34375 11.320312 -0.582031 11.875 -1.0625 C 12.425781 -1.550781 12.816406 -2.171875 13.046875 -2.921875 C 13.273438 -3.671875 13.390625 -4.453125 13.390625 -5.265625 C 13.390625 -6.191406 13.238281 -7.175781 12.9375 -8.21875 C 12.644531 -9.269531 12.222656 -10.257812 11.671875 -11.1875 C 11.117188 -12.113281 10.457031 -12.851562 9.6875 -13.40625 C 8.914062 -13.957031 8.066406 -14.179688 7.140625 -14.078125 C 6.316406 -14.003906 5.65625 -13.722656 5.15625 -13.234375 C 4.664062 -12.742188 4.3125 -12.125 4.09375 -11.375 C 3.882812 -10.632812 3.78125 -9.851562 3.78125 -9.03125 Z M 3.78125 -9.03125 "/>
</g>
<g id="glyph-1-0">
<path d="M 51.765625 1.609375 C 45.335938 1.609375 39.414062 0.332031 34 -2.21875 C 28.582031 -4.78125 24.210938 -7.910156 20.890625 -11.609375 L 13.5625 0 L 11.609375 0 L 11.609375 -117.28125 C 11.609375 -122.507812 10.984375 -125.957031 9.734375 -127.625 C 8.484375 -129.289062 6.726562 -130.597656 4.46875 -131.546875 L 4.46875 -134.046875 L 28.03125 -144.40625 L 29.8125 -142.984375 L 29.8125 -79.96875 C 34.332031 -82.820312 39.117188 -85.289062 44.171875 -87.375 C 49.234375 -89.457031 54.320312 -90.5 59.4375 -90.5 C 67.882812 -90.5 75.144531 -88.445312 81.21875 -84.34375 C 87.289062 -80.238281 91.960938 -74.910156 95.234375 -68.359375 C 98.503906 -61.816406 100.140625 -54.859375 100.140625 -47.484375 C 100.140625 -38.441406 98.175781 -30.203125 94.25 -22.765625 C 90.320312 -15.328125 84.726562 -9.40625 77.46875 -5 C 70.207031 -0.59375 61.640625 1.609375 51.765625 1.609375 Z M 29.8125 -31.421875 C 29.8125 -27.960938 30.671875 -24.507812 32.390625 -21.0625 C 34.117188 -17.613281 36.378906 -14.457031 39.171875 -11.59375 C 41.972656 -8.738281 45.097656 -6.445312 48.546875 -4.71875 C 52.003906 -3 55.394531 -2.140625 58.71875 -2.140625 C 65.03125 -2.140625 69.910156 -3.65625 73.359375 -6.6875 C 76.816406 -9.726562 79.226562 -13.6875 80.59375 -18.5625 C 81.957031 -23.4375 82.640625 -28.554688 82.640625 -33.921875 C 82.640625 -37.128906 82.3125 -40.875 81.65625 -45.15625 C 81.007812 -49.445312 79.910156 -53.820312 78.359375 -58.28125 C 76.816406 -62.738281 74.734375 -66.867188 72.109375 -70.671875 C 69.492188 -74.484375 66.25 -77.550781 62.375 -79.875 C 58.507812 -82.195312 53.898438 -83.359375 48.546875 -83.359375 C 45.210938 -83.359375 42 -82.789062 38.90625 -81.65625 C 35.8125 -80.53125 32.78125 -79.015625 29.8125 -77.109375 Z M 29.8125 -31.421875 "/>
</g>
<g id="glyph-1-1">
<path d="M 47.84375 1.78125 C 42.84375 1.78125 37.875 0.890625 32.9375 -0.890625 C 28 -2.671875 23.445312 -5.347656 19.28125 -8.921875 C 15.113281 -12.492188 11.78125 -16.957031 9.28125 -22.3125 C 6.78125 -27.664062 5.53125 -33.972656 5.53125 -41.234375 C 5.53125 -48.847656 6.867188 -55.6875 9.546875 -61.75 C 12.222656 -67.820312 15.820312 -73 20.34375 -77.28125 C 24.863281 -81.570312 29.890625 -84.847656 35.421875 -87.109375 C 40.960938 -89.367188 46.648438 -90.5 52.484375 -90.5 C 60.566406 -90.5 67.34375 -88.890625 72.8125 -85.671875 C 78.289062 -82.460938 82.425781 -78.414062 85.21875 -73.53125 C 88.019531 -68.65625 89.421875 -63.601562 89.421875 -58.375 L 21.78125 -58.375 C 21.65625 -57.414062 21.5625 -56.457031 21.5 -55.5 C 21.445312 -54.550781 21.421875 -53.601562 21.421875 -52.65625 C 21.421875 -44.925781 22.9375 -38.023438 25.96875 -31.953125 C 29.007812 -25.878906 33.296875 -21.144531 38.828125 -17.75 C 44.359375 -14.363281 50.875 -12.671875 58.375 -12.671875 C 65.03125 -12.671875 70.914062 -13.976562 76.03125 -16.59375 C 81.15625 -19.21875 85.5625 -22.613281 89.25 -26.78125 L 90.859375 -24.984375 C 88.117188 -20.828125 84.722656 -16.691406 80.671875 -12.578125 C 76.628906 -8.472656 71.867188 -5.050781 66.390625 -2.3125 C 60.921875 0.414062 54.738281 1.78125 47.84375 1.78125 Z M 21.953125 -60.875 L 71.40625 -60.875 C 70.6875 -65.75 69.164062 -70.175781 66.84375 -74.15625 C 64.53125 -78.144531 61.675781 -81.328125 58.28125 -83.703125 C 54.882812 -86.085938 51.109375 -87.28125 46.953125 -87.28125 C 41.953125 -87.40625 37.722656 -86.21875 34.265625 -83.71875 C 30.816406 -81.21875 28.082031 -77.941406 26.0625 -73.890625 C 24.039062 -69.847656 22.671875 -65.507812 21.953125 -60.875 Z M 21.953125 -60.875 "/>
</g>
<g id="glyph-1-2">
<path d="M 73.1875 0 C 68.425781 0 66.046875 -2.378906 66.046875 -7.140625 L 66.046875 -36.59375 C 64.378906 -29.6875 61.878906 -23.316406 58.546875 -17.484375 C 55.210938 -11.660156 51.101562 -6.992188 46.21875 -3.484375 C 41.34375 0.0234375 35.8125 1.78125 29.625 1.78125 C 23.082031 1.78125 17.398438 -0.238281 12.578125 -4.28125 C 7.765625 -8.332031 5.359375 -14.101562 5.359375 -21.59375 C 5.359375 -27.78125 7.226562 -32.804688 10.96875 -36.671875 C 14.71875 -40.546875 19.6875 -43.789062 25.875 -46.40625 C 32.070312 -49.03125 38.859375 -51.351562 46.234375 -53.375 L 66.046875 -59.078125 C 65.921875 -67.890625 63.6875 -74.164062 59.34375 -77.90625 C 55.007812 -81.65625 49.507812 -83.53125 42.84375 -83.53125 C 37.84375 -83.53125 32.898438 -82.367188 28.015625 -80.046875 C 23.140625 -77.734375 18.441406 -73.835938 13.921875 -68.359375 L 12.140625 -69.96875 C 17.140625 -76.15625 23.03125 -81.125 29.8125 -84.875 C 36.59375 -88.625 44.03125 -90.5 52.125 -90.5 C 62.945312 -90.5 70.945312 -87.671875 76.125 -82.015625 C 81.300781 -76.367188 83.890625 -68.070312 83.890625 -57.125 L 83.890625 -22.671875 C 83.890625 -16.242188 84.335938 -11.507812 85.234375 -8.46875 C 86.128906 -5.4375 88.0625 -3.445312 91.03125 -2.5 L 91.03125 0 Z M 21.953125 -27.84375 C 21.953125 -22.007812 23.707031 -17.785156 27.21875 -15.171875 C 30.726562 -12.554688 34.507812 -11.25 38.5625 -11.25 C 42.957031 -11.25 46.847656 -12.585938 50.234375 -15.265625 C 53.628906 -17.941406 56.488281 -21.390625 58.8125 -25.609375 C 61.132812 -29.835938 62.921875 -34.269531 64.171875 -38.90625 C 65.421875 -43.550781 66.046875 -47.894531 66.046875 -51.9375 L 66.046875 -56.578125 L 46.953125 -51.046875 C 44.804688 -50.453125 42.332031 -49.585938 39.53125 -48.453125 C 36.738281 -47.328125 34.003906 -45.867188 31.328125 -44.078125 C 28.648438 -42.296875 26.414062 -40.066406 24.625 -37.390625 C 22.84375 -34.710938 21.953125 -31.53125 21.953125 -27.84375 Z M 21.953125 -27.84375 "/>
</g>
<g id="glyph-2-0">
<path d="M 49.796875 1.78125 C 44.921875 1.78125 39.984375 0.859375 34.984375 -0.984375 C 29.984375 -2.828125 25.398438 -5.5625 21.234375 -9.1875 C 17.078125 -12.820312 13.71875 -17.4375 11.15625 -23.03125 C 8.59375 -28.625 7.3125 -35.164062 7.3125 -42.65625 C 7.3125 -49.207031 8.59375 -55.367188 11.15625 -61.140625 C 13.71875 -66.910156 17.226562 -71.992188 21.6875 -76.390625 C 26.144531 -80.796875 31.347656 -84.25 37.296875 -86.75 C 43.253906 -89.25 49.625 -90.5 56.40625 -90.5 C 61.40625 -90.5 66.046875 -90.082031 70.328125 -89.25 C 74.609375 -88.414062 78.054688 -87.3125 80.671875 -85.9375 C 83.296875 -84.570312 84.609375 -83.054688 84.609375 -81.390625 C 84.609375 -80.085938 83.6875 -78.515625 81.84375 -76.671875 C 80 -74.828125 77.53125 -73.90625 74.4375 -73.90625 C 72.53125 -73.90625 69.34375 -75.09375 64.875 -77.46875 C 60.414062 -79.84375 54.378906 -83.296875 46.765625 -87.828125 C 38.078125 -86.035156 30.847656 -81.773438 25.078125 -75.046875 C 19.304688 -68.328125 16.421875 -59.554688 16.421875 -48.734375 C 16.421875 -40.160156 18.113281 -32.660156 21.5 -26.234375 C 24.894531 -19.804688 29.597656 -14.835938 35.609375 -11.328125 C 41.617188 -7.816406 48.550781 -6.0625 56.40625 -6.0625 C 63.664062 -6.0625 69.851562 -7.609375 74.96875 -10.703125 C 80.082031 -13.796875 84.898438 -17.90625 89.421875 -23.03125 L 90.859375 -21.59375 C 85.859375 -15.40625 79.9375 -9.960938 73.09375 -5.265625 C 66.25 -0.566406 58.484375 1.78125 49.796875 1.78125 Z M 49.796875 1.78125 "/>
</g>
<g id="glyph-2-1">
<path d="M 6.609375 0 L 6.609375 -1.96875 C 8.273438 -2.4375 9.640625 -3.234375 10.703125 -4.359375 C 11.773438 -5.492188 12.550781 -7.457031 13.03125 -10.25 C 13.507812 -13.050781 13.75 -17.191406 13.75 -22.671875 L 13.75 -63.71875 C 13.75 -68.601562 13.539062 -72.234375 13.125 -74.609375 C 12.707031 -76.992188 11.960938 -78.691406 10.890625 -79.703125 C 9.816406 -80.710938 8.390625 -81.570312 6.609375 -82.28125 L 6.609375 -83.890625 L 21.78125 -90.5 L 23.03125 -89.421875 L 23.03125 -66.765625 C 24.457031 -70.566406 26.359375 -74.046875 28.734375 -77.203125 C 31.117188 -80.359375 33.441406 -82.828125 35.703125 -84.609375 C 37.960938 -86.273438 40.609375 -87.671875 43.640625 -88.796875 C 46.671875 -89.929688 50.269531 -90.5 54.4375 -90.5 C 58.601562 -90.5 61.640625 -90.050781 63.546875 -89.15625 C 65.453125 -88.269531 66.40625 -87.289062 66.40625 -86.21875 C 66.40625 -84.3125 65.539062 -82.40625 63.8125 -80.5 C 62.082031 -78.59375 60.03125 -77.640625 57.65625 -77.640625 C 55.507812 -77.640625 52.617188 -78.085938 48.984375 -78.984375 C 45.359375 -79.878906 41.164062 -80.921875 36.40625 -82.109375 C 34.382812 -80.921875 32.390625 -78.925781 30.421875 -76.125 C 28.460938 -73.332031 26.800781 -70.328125 25.4375 -67.109375 C 24.070312 -63.898438 23.269531 -60.925781 23.03125 -58.1875 L 23.03125 -22.671875 C 23.03125 -17.191406 23.265625 -13.050781 23.734375 -10.25 C 24.210938 -7.457031 24.988281 -5.492188 26.0625 -4.359375 C 27.132812 -3.234375 28.503906 -2.4375 30.171875 -1.96875 L 30.171875 0 Z M 6.609375 0 "/>
</g>
<g id="glyph-2-2">
<path d="M 49.796875 1.78125 C 44.921875 1.78125 39.984375 0.859375 34.984375 -0.984375 C 29.984375 -2.828125 25.398438 -5.5625 21.234375 -9.1875 C 17.078125 -12.820312 13.71875 -17.4375 11.15625 -23.03125 C 8.59375 -28.625 7.3125 -35.164062 7.3125 -42.65625 C 7.3125 -51.9375 9.363281 -60.175781 13.46875 -67.375 C 17.582031 -74.582031 23.207031 -80.238281 30.34375 -84.34375 C 37.488281 -88.445312 45.519531 -90.5 54.4375 -90.5 C 64.675781 -90.5 72.914062 -87.613281 79.15625 -81.84375 C 85.40625 -76.070312 88.769531 -68.601562 89.25 -59.4375 L 17.5 -59.4375 C 16.78125 -56.101562 16.421875 -52.535156 16.421875 -48.734375 C 16.421875 -40.160156 18.113281 -32.660156 21.5 -26.234375 C 24.894531 -19.804688 29.597656 -14.835938 35.609375 -11.328125 C 41.617188 -7.816406 48.550781 -6.0625 56.40625 -6.0625 C 63.664062 -6.0625 69.851562 -7.609375 74.96875 -10.703125 C 80.082031 -13.796875 84.898438 -17.90625 89.421875 -23.03125 L 90.859375 -21.59375 C 85.859375 -15.40625 79.9375 -9.960938 73.09375 -5.265625 C 66.25 -0.566406 58.484375 1.78125 49.796875 1.78125 Z M 17.84375 -61.578125 L 79.25 -61.578125 C 78.894531 -63.835938 78.03125 -66.425781 76.65625 -69.34375 C 75.289062 -72.257812 73.359375 -75.085938 70.859375 -77.828125 C 68.359375 -80.566406 65.234375 -82.859375 61.484375 -84.703125 C 57.742188 -86.546875 53.3125 -87.46875 48.1875 -87.46875 C 40.570312 -87.46875 34.117188 -85.144531 28.828125 -80.5 C 23.535156 -75.863281 19.875 -69.554688 17.84375 -61.578125 Z M 17.84375 -61.578125 "/>
</g>
<g id="glyph-2-3">
<path d="M 76.578125 0 C 74.191406 0 73 -1.1875 73 -3.5625 L 73 -37.65625 C 70.976562 -29.925781 67.882812 -23.085938 63.71875 -17.140625 C 59.5625 -11.191406 54.800781 -6.550781 49.4375 -3.21875 C 44.082031 0.113281 38.609375 1.78125 33.015625 1.78125 C 28.617188 1.78125 24.425781 0.921875 20.4375 -0.796875 C 16.445312 -2.523438 13.234375 -5.113281 10.796875 -8.5625 C 8.359375 -12.019531 7.140625 -16.363281 7.140625 -21.59375 C 7.140625 -27.90625 8.984375 -32.992188 12.671875 -36.859375 C 16.359375 -40.722656 21.207031 -43.84375 27.21875 -46.21875 C 33.226562 -48.601562 39.625 -50.691406 46.40625 -52.484375 L 72.828125 -59.4375 C 72.347656 -68.125 69.9375 -74.695312 65.59375 -79.15625 C 61.25 -83.625 54.796875 -85.859375 46.234375 -85.859375 C 40.515625 -85.859375 34.976562 -84.457031 29.625 -81.65625 C 24.269531 -78.863281 19.453125 -74.671875 15.171875 -69.078125 L 13.5625 -70.328125 C 18.800781 -76.992188 24.515625 -82.019531 30.703125 -85.40625 C 36.890625 -88.800781 43.671875 -90.5 51.046875 -90.5 C 61.878906 -90.5 69.789062 -87.671875 74.78125 -82.015625 C 79.78125 -76.367188 82.28125 -68.960938 82.28125 -59.796875 L 82.28125 -22.671875 C 82.28125 -17.191406 82.519531 -13.050781 83 -10.25 C 83.476562 -7.457031 84.25 -5.492188 85.3125 -4.359375 C 86.382812 -3.234375 87.753906 -2.4375 89.421875 -1.96875 L 89.421875 0 Z M 16.953125 -25.171875 C 17.078125 -19.453125 18.921875 -14.835938 22.484375 -11.328125 C 26.054688 -7.816406 30.9375 -6.0625 37.125 -6.0625 C 42.363281 -6.0625 47.15625 -7.367188 51.5 -9.984375 C 55.84375 -12.609375 59.617188 -16.117188 62.828125 -20.515625 C 66.046875 -24.921875 68.546875 -29.769531 70.328125 -35.0625 C 72.109375 -40.363281 73 -45.691406 73 -51.046875 L 73 -57.296875 L 47.125 -50.515625 C 37.71875 -48.015625 30.304688 -44.976562 24.890625 -41.40625 C 19.484375 -37.84375 16.835938 -32.429688 16.953125 -25.171875 Z M 16.953125 -25.171875 "/>
</g>
<g id="glyph-2-4">
<path d="M 34.09375 1.78125 C 28.976562 1.78125 24.753906 0.0234375 21.421875 -3.484375 C 18.085938 -6.992188 16.421875 -13.210938 16.421875 -22.140625 L 16.421875 -87.109375 L 5 -87.109375 L 5 -89.25 L 23.734375 -109.421875 L 25.703125 -109.421875 L 25.703125 -89.25 L 52.484375 -89.25 L 51.40625 -87.109375 L 25.703125 -87.109375 L 25.703125 -22.484375 C 25.703125 -15.828125 27.007812 -11.1875 29.625 -8.5625 C 32.25 -5.945312 35.40625 -4.640625 39.09375 -4.640625 C 42.1875 -4.640625 45.304688 -5.441406 48.453125 -7.046875 C 51.609375 -8.648438 54.675781 -11.117188 57.65625 -14.453125 L 59.078125 -13.03125 C 57.296875 -10.882812 55.066406 -8.648438 52.390625 -6.328125 C 49.710938 -4.015625 46.828125 -2.082031 43.734375 -0.53125 C 40.640625 1.007812 37.425781 1.78125 34.09375 1.78125 Z M 34.09375 1.78125 "/>
</g>
<g id="glyph-2-5">
<path d="M 6.609375 0 L 6.609375 -1.96875 C 8.273438 -2.4375 9.640625 -3.234375 10.703125 -4.359375 C 11.773438 -5.492188 12.550781 -7.457031 13.03125 -10.25 C 13.507812 -13.050781 13.75 -17.191406 13.75 -22.671875 L 13.75 -63.71875 C 13.75 -68.601562 13.539062 -72.234375 13.125 -74.609375 C 12.707031 -76.992188 11.960938 -78.691406 10.890625 -79.703125 C 9.816406 -80.710938 8.390625 -81.570312 6.609375 -82.28125 L 6.609375 -83.890625 L 21.78125 -90.5 L 23.03125 -89.421875 L 23.03125 -22.671875 C 23.03125 -17.191406 23.265625 -13.050781 23.734375 -10.25 C 24.210938 -7.457031 24.988281 -5.492188 26.0625 -4.359375 C 27.132812 -3.234375 28.503906 -2.4375 30.171875 -1.96875 L 30.171875 0 Z M 10 -114.0625 C 10 -116.082031 10.710938 -117.804688 12.140625 -119.234375 C 13.566406 -120.660156 15.289062 -121.375 17.3125 -121.375 C 19.457031 -121.375 21.210938 -120.660156 22.578125 -119.234375 C 23.953125 -117.804688 24.640625 -116.082031 24.640625 -114.0625 C 24.640625 -112.039062 23.921875 -110.316406 22.484375 -108.890625 C 21.054688 -107.460938 19.332031 -106.75 17.3125 -106.75 C 15.289062 -106.75 13.566406 -107.460938 12.140625 -108.890625 C 10.710938 -110.316406 10 -112.039062 10 -114.0625 Z M 10 -114.0625 "/>
</g>
<g id="glyph-2-6">
<path d="M 12.859375 -68.359375 C 10.710938 -73.484375 8.953125 -77.289062 7.578125 -79.78125 C 6.210938 -82.28125 4.992188 -84.035156 3.921875 -85.046875 C 2.859375 -86.066406 1.726562 -86.8125 0.53125 -87.28125 L 0.53125 -89.25 L 21.0625 -89.25 L 21.0625 -87.28125 C 19.394531 -86.925781 18.320312 -86.242188 17.84375 -85.234375 C 17.375 -84.222656 17.554688 -82.4375 18.390625 -79.875 C 19.222656 -77.320312 20.707031 -73.484375 22.84375 -68.359375 L 48.375 -7.859375 L 71.40625 -68.015625 C 75.925781 -79.671875 75.269531 -86.09375 69.4375 -87.28125 L 69.4375 -89.25 L 86.921875 -89.25 L 86.921875 -87.28125 C 85.378906 -86.8125 84.007812 -86.039062 82.8125 -84.96875 C 81.625 -83.894531 80.375 -82.078125 79.0625 -79.515625 C 77.757812 -76.960938 76.097656 -73.128906 74.078125 -68.015625 L 48.015625 0 L 41.40625 0 Z M 12.859375 -68.359375 "/>
</g>
<g id="glyph-3-0">
</g>
</g>
<clipPath id="clip-0">
<rect x="0" y="0" width="41" height="29"/>
</clipPath>
<g id="source-5" clip-path="url(#clip-0)">
<g fill="rgb(29.40979%, 22.349548%, 19.60907%)" fill-opacity="1">
<use xlink:href="#glyph-0-0" x="0.601106" y="22.114825"/>
</g>
<g fill="rgb(29.40979%, 22.349548%, 19.60907%)" fill-opacity="1">
<use xlink:href="#glyph-0-1" x="7.163987" y="22.114825"/>
</g>
<g fill="rgb(29.40979%, 22.349548%, 19.60907%)" fill-opacity="1">
<use xlink:href="#glyph-0-2" x="22.140026" y="22.114825"/>
</g>
</g>
</defs>
<use xlink:href="#source-5" transform="matrix(1, 0, 0, 1, 1149, 695)"/>
<g fill="rgb(46.669006%, 49.798584%, 77.249146%)" fill-opacity="1">
<use xlink:href="#glyph-1-0" x="308.016686" y="800.249911"/>
</g>
<g fill="rgb(46.669006%, 49.798584%, 77.249146%)" fill-opacity="1">
<use xlink:href="#glyph-1-1" x="407.976482" y="800.249911"/>
</g>
<g fill="rgb(46.669006%, 49.798584%, 77.249146%)" fill-opacity="1">
<use xlink:href="#glyph-1-2" x="495.798275" y="800.249911"/>
</g>
<g fill="rgb(29.40979%, 22.349548%, 19.60907%)" fill-opacity="1">
<use xlink:href="#glyph-2-0" x="584.69635" y="800.249911"/>
</g>
<g fill="rgb(29.40979%, 22.349548%, 19.60907%)" fill-opacity="1">
<use xlink:href="#glyph-2-1" x="673.767654" y="800.249911"/>
</g>
<g fill="rgb(29.40979%, 22.349548%, 19.60907%)" fill-opacity="1">
<use xlink:href="#glyph-2-2" x="728.209963" y="800.249911"/>
</g>
<g fill="rgb(29.40979%, 22.349548%, 19.60907%)" fill-opacity="1">
<use xlink:href="#glyph-2-3" x="817.281245" y="800.249911"/>
</g>
<g fill="rgb(29.40979%, 22.349548%, 19.60907%)" fill-opacity="1">
<use xlink:href="#glyph-2-4" x="905.995562" y="800.249911"/>
</g>
<g fill="rgb(29.40979%, 22.349548%, 19.60907%)" fill-opacity="1">
<use xlink:href="#glyph-2-5" x="959.188383" y="800.249911"/>
</g>
<g fill="rgb(29.40979%, 22.349548%, 19.60907%)" fill-opacity="1">
<use xlink:href="#glyph-2-6" x="990.782725" y="800.249911"/>
</g>
<g fill="rgb(29.40979%, 22.349548%, 19.60907%)" fill-opacity="1">
<use xlink:href="#glyph-2-2" x="1067.53751" y="800.249911"/>
</g>
<g fill="rgb(29.40979%, 22.349548%, 19.60907%)" fill-opacity="1">
<use xlink:href="#glyph-3-0" x="1158.399425" y="800.249911"/>
</g>
</svg>
